<svg id="visual" viewBox="0 0 900 600" width="900" height="600" xmlns="http://www.w3.org/2000/svg" xmlns:xlink="http://www.w3.org/1999/xlink" version="1.1"><rect x="0" y="0" width="900" height="600" fill="#191919"></rect><path d="M0 353L21.5 365.7C43 378.3 86 403.7 128.8 412C171.7 420.3 214.3 411.7 257.2 406.2C300 400.7 343 398.3 385.8 396.7C428.7 395 471.3 394 514.2 399.8C557 405.7 600 418.3 642.8 413.8C685.7 409.3 728.3 387.7 771.2 384.3C814 381 857 396 878.5 403.5L900 411L900 601L878.5 601C857 601 814 601 771.2 601C728.3 601 685.7 601 642.8 601C600 601 557 601 514.2 601C471.3 601 428.7 601 385.8 601C343 601 300 601 257.2 601C214.3 601 171.7 601 128.8 601C86 601 43 601 21.5 601L0 601Z" fill="#b08f26"></path><path d="M0 456L21.5 450.3C43 444.7 86 433.3 128.8 437.2C171.7 441 214.3 460 257.2 468C300 476 343 473 385.8 468C428.7 463 471.3 456 514.2 444C557 432 600 415 642.8 420C685.7 425 728.3 452 771.2 464.3C814 476.7 857 474.3 878.5 473.2L900 472L900 601L878.5 601C857 601 814 601 771.2 601C728.3 601 685.7 601 642.8 601C600 601 557 601 514.2 601C471.3 601 428.7 601 385.8 601C343 601 300 601 257.2 601C214.3 601 171.7 601 128.8 601C86 601 43 601 21.5 601L0 601Z" fill="#b9972a"></path><path d="M0 443L21.5 445.7C43 448.3 86 453.7 128.8 461C171.7 468.3 214.3 477.7 257.2 481.2C300 484.7 343 482.3 385.8 481.2C428.7 480 471.3 480 514.2 480.5C557 481 600 482 642.8 484.8C685.7 487.7 728.3 492.3 771.2 496.8C814 501.3 857 505.7 878.5 507.8L900 510L900 601L878.5 601C857 601 814 601 771.2 601C728.3 601 685.7 601 642.8 601C600 601 557 601 514.2 601C471.3 601 428.7 601 385.8 601C343 601 300 601 257.2 601C214.3 601 171.7 601 128.8 601C86 601 43 601 21.5 601L0 601Z" fill="#c29f2e"></path><path d="M0 531L21.5 524.8C43 518.7 86 506.3 128.8 504.3C171.7 502.3 214.3 510.7 257.2 517.8C300 525 343 531 385.8 528.2C428.7 525.3 471.3 513.7 514.2 506.2C557 498.7 600 495.3 642.8 499.7C685.7 504 728.3 516 771.2 523.5C814 531 857 534 878.5 535.5L900 537L900 601L878.5 601C857 601 814 601 771.2 601C728.3 601 685.7 601 642.8 601C600 601 557 601 514.2 601C471.3 601 428.7 601 385.8 601C343 601 300 601 257.2 601C214.3 601 171.7 601 128.8 601C86 601 43 601 21.5 601L0 601Z" fill="#cba732"></path><path d="M0 541L21.5 544.5C43 548 86 555 128.8 556.5C171.7 558 214.3 554 257.2 549.5C300 545 343 540 385.8 544C428.7 548 471.3 561 514.2 560.8C557 560.7 600 547.3 642.8 543.2C685.7 539 728.3 544 771.2 547.3C814 550.7 857 552.3 878.5 553.2L900 554L900 601L878.5 601C857 601 814 601 771.2 601C728.3 601 685.7 601 642.8 601C600 601 557 601 514.2 601C471.3 601 428.7 601 385.8 601C343 601 300 601 257.2 601C214.3 601 171.7 601 128.8 601C86 601 43 601 21.5 601L0 601Z" fill="#d4af37"></path></svg>