<svg width="414" height="574" viewBox="0 0 414 574" fill="none" xmlns="http://www.w3.org/2000/svg">
<path d="M131.513 552.771C67.8704 579.5 34.3864 584.5 -13.2237 540.5V0H419.976V552.771C419.976 552.771 274.347 492.785 131.513 552.771Z" fill="url(#paint0_linear)"/>
<path d="M130.5 365.5C71 351 0 371 0 371V162C0 162 27.5 190.5 57.5 199C87.5 207.5 159.5 197.5 205.5 213C251.5 228.5 414 351.5 414 351.5V480C414 480 337 463.118 293 445C249 426.882 190 380 130.5 365.5Z" fill="white" fill-opacity="0.2"/>
<path d="M130.5 -11.5C71 -26 0 -6 0 -6V-215C0 -215 27.5 -186.5 57.5 -178C87.5 -169.5 159.5 -179.5 205.5 -164C251.5 -148.5 414 -25.5 414 -25.5V103C414 103 337 86.1176 293 68C249 49.8824 190 3 130.5 -11.5Z" fill="white" fill-opacity="0.2"/>
<defs>
<linearGradient id="paint0_linear" x1="127.5" y1="367.5" x2="740" y2="-213" gradientUnits="userSpaceOnUse">
<stop offset="0.104167" stop-color="#64C8CD"/>
<stop offset="1" stop-color="#6C63FF"/>
</linearGradient>
</defs>
</svg>
