<svg width="2048" height="782" viewBox="0 0 2048 782" fill="none" xmlns="http://www.w3.org/2000/svg">
<path d="M667 665C445.5 757 225.708 747.863 0 695V-5.69336H2053.69V782C2053.69 782 1251.53 422.213 667 665Z" fill="url(#paint0_linear)"/>
<path d="M475.318 419.5C199.553 384.638 0 458.5 0 458.5V117C0 117 326.499 226.289 475.318 236.5C624.136 246.711 721.444 191.827 949.633 210.447C1177.82 229.066 2053.69 419.5 2053.69 419.5V580C2053.69 580 1678.11 443.5 1353.78 443.5C1029.46 443.5 751.082 454.362 475.318 419.5Z" fill="white" fill-opacity="0.2"/>
<path d="M637.478 -45.0472C334.517 -79.2453 -27 -32.0755 -27 -32.0755V-525C-27 -525 113.024 -457.783 265.778 -437.736C418.531 -417.689 785.14 -441.274 1019.36 -404.717C1253.58 -368.16 2081 -78.0661 2081 -78.0661V225C2081 225 1688.93 185.183 1464.89 142.453C1240.86 99.7225 940.44 -10.8491 637.478 -45.0472Z" fill="white" fill-opacity="0.2"/>
<defs>
<linearGradient id="paint0_linear" x1="667.138" y1="435.831" x2="1034.94" y2="-939.685" gradientUnits="userSpaceOnUse">
<stop offset="0.104167" stop-color="#64C8CD"/>
<stop offset="1" stop-color="#6C63FF"/>
</linearGradient>
</defs>
</svg>
