<svg width="1024" height="739" viewBox="0 0 1024 739" fill="none" xmlns="http://www.w3.org/2000/svg">
<path d="M390.5 695C259.5 756.839 112.541 747.863 0 695V-5.69324H1024V695C1024 695 702.701 547.626 390.5 695Z" fill="url(#paint0_linear)"/>
<path d="M237 419.5C99.5 384.638 0 458.5 0 458.5V166C0 166 68.0193 200.236 142.222 210.447C216.425 220.657 359.722 191.827 473.5 210.447C587.278 229.066 1024 393.638 1024 393.638V580C1024 580 886.43 505.956 724.715 505.956C563 505.956 374.5 454.362 237 419.5Z" fill="white" fill-opacity="0.2"/>
<path d="M367.477 -22.5097C226.83 -39.9303 59 -15.9018 59 -15.9018V-267C59 -267 124.005 -232.759 194.919 -222.547C265.833 -212.335 436.027 -224.349 544.762 -205.727C653.497 -187.105 1037.62 -39.3296 1037.62 -39.3296V115.054C1037.62 115.054 855.602 94.7708 751.595 73.0038C647.588 51.2368 508.123 -5.08896 367.477 -22.5097Z" fill="white" fill-opacity="0.2"/>
<defs>
<linearGradient id="paint0_linear" x1="332.644" y1="435.831" x2="946.503" y2="-708.837" gradientUnits="userSpaceOnUse">
<stop offset="0.104167" stop-color="#64C8CD"/>
<stop offset="1" stop-color="#6C63FF"/>
</linearGradient>
</defs>
</svg>
