<svg width="136" height="113" viewBox="0 0 136 113" fill="none" xmlns="http://www.w3.org/2000/svg">
<g clip-path="url(#clip0)">
<path d="M4.75965 47.308C11.5609 55.8276 24.3943 57.7785 35.0129 54.8112C38.4874 53.8165 41.8393 52.4497 45.0078 50.7354C46.8483 49.7563 48.6447 48.6824 50.4045 47.538C50.8375 47.2576 51.2704 46.973 51.699 46.6826C51.9911 46.4871 52.2822 46.2891 52.5723 46.0888C56.2063 43.5844 59.6978 40.837 63.1308 38.1054C71.7006 31.2866 80.5051 24.2578 91.0343 21.0044C93.2035 20.3344 96.0097 20.021 97.3512 21.821C98.515 23.3837 97.8047 25.5963 96.8199 27.2726C93.1668 33.4819 86.5359 37.4024 79.899 40.4172C73.2622 43.432 66.2319 45.8746 60.4626 50.2825C54.6931 54.6904 50.2886 61.6962 51.4686 68.7681C52.4857 74.8624 57.5653 79.8137 63.4713 81.9716C69.3772 84.1281 75.9641 83.8277 82.1035 82.4274C88.2428 81.0257 94.0709 78.5802 99.996 76.4726C103.568 75.2002 108.238 74.3204 110.609 77.2316C112.611 79.6915 111.46 83.5718 109.022 85.619C106.584 87.6663 103.285 88.352 100.137 88.9673C90.3621 90.8795 80.5873 92.7911 70.8126 94.7022C67.8142 95.2873 64.7452 95.8998 62.1328 97.4582C59.5203 99.0152 57.4127 101.735 57.4875 104.73C57.5624 107.681 59.7683 110.289 62.4718 111.596C65.1738 112.902 68.2941 113.103 71.3043 112.962C82.5848 112.433 114.925 94.8776 122.682 92.6334C127.666 91.1929 133.116 89.0766 135.217 84.4214C137.834 78.6262 133.528 71.6147 127.65 68.9679C121.773 66.3197 114.96 66.9063 108.555 67.7977C102.15 68.689 95.5342 69.8233 89.2995 68.1298C83.0648 66.4362 77.3526 60.9155 77.9675 54.607C78.5033 49.118 83.5506 44.9818 88.8622 43.1589C93.02 41.7313 97.4436 41.3431 101.811 40.7004C103.024 40.5236 104.232 40.3252 105.428 40.0808C108.491 39.4521 111.479 38.5126 114.344 37.2774C117.35 35.9839 120.206 34.3784 122.862 32.4885C124.981 30.9832 126.961 29.299 128.78 27.4552C129.057 27.1734 129.332 26.8854 129.603 26.5911C129.862 26.3094 130.117 26.0218 130.367 25.7285C133.613 21.9288 136.011 17.2492 135.292 12.4272C134.575 7.61822 130.748 3.61431 126.193 1.6907C123.56 0.579386 120.72 0.0819512 117.844 0.0100677C115.742 -0.0310897 113.64 0.117135 111.566 0.45287C101.966 1.95667 93.1683 6.5256 84.8597 11.4726C76.5527 16.4196 68.457 21.8497 59.4264 25.3763C50.3957 28.9044 40.1161 30.3981 30.9548 27.2079C21.7936 24.0192 14.2673 15.3184 14.7149 5.80532C8.63877 10.9306 3.47543 17.3728 1.18878 24.9005C-1.09788 32.4281 -0.179073 41.1202 4.75965 47.308Z" fill="#3F3D56"/>
<path d="M48.5394 37.476C47.9495 37.476 47.4713 37.0075 47.4713 36.4297C47.4713 35.8518 47.9495 35.3834 48.5394 35.3834C49.1293 35.3834 49.6075 35.8518 49.6075 36.4297C49.6075 37.0075 49.1293 37.476 48.5394 37.476Z" fill="#6C63FF"/>
<path d="M10.8199 24.2457C9.90783 24.2457 9.16846 23.5214 9.16846 22.628C9.16846 21.7346 9.90783 21.0104 10.8199 21.0104C11.7319 21.0104 12.4713 21.7346 12.4713 22.628C12.4713 23.5214 11.7319 24.2457 10.8199 24.2457Z" fill="#FF6584"/>
<path d="M119.135 74.1193C118.798 74.1193 118.525 73.8517 118.525 73.5216C118.525 73.1915 118.798 72.9239 119.135 72.9239C119.472 72.9239 119.745 73.1915 119.745 73.5216C119.745 73.8517 119.472 74.1193 119.135 74.1193Z" fill="#FF6584"/>
<path d="M101.621 39.1616C101.62 39.6801 101.684 40.1966 101.811 40.6999C103.024 40.5231 104.232 40.3247 105.428 40.0803C108.491 39.4516 111.479 38.512 114.344 37.2768C113.883 35.8199 112.905 34.573 111.586 33.7626C110.266 32.9522 108.695 32.632 107.155 32.8601C105.615 33.0881 104.21 33.8494 103.195 35.0056C102.179 36.1618 101.621 37.6364 101.621 39.1616V39.1616Z" fill="#FF6584"/>
<path d="M21.3873 33.7343C21.0426 33.7343 20.7632 33.4606 20.7632 33.123C20.7632 32.7854 21.0426 32.5117 21.3873 32.5117C21.732 32.5117 22.0114 32.7854 22.0114 33.123C22.0114 33.4606 21.732 33.7343 21.3873 33.7343Z" fill="#F0F0F0"/>
<path d="M78.4801 101.017C78.1354 101.017 77.856 100.744 77.856 100.406C77.856 100.068 78.1354 99.7947 78.4801 99.7947C78.8247 99.7947 79.1041 100.068 79.1041 100.406C79.1041 100.744 78.8247 101.017 78.4801 101.017Z" fill="#F0F0F0"/>
<path d="M69.5272 109.5C69.1825 109.5 68.9031 109.226 68.9031 108.888C68.9031 108.551 69.1825 108.277 69.5272 108.277C69.8718 108.277 70.1512 108.551 70.1512 108.888C70.1512 109.226 69.8718 109.5 69.5272 109.5Z" fill="#F0F0F0"/>
<path d="M124.859 85.3467C124.514 85.3467 124.235 85.073 124.235 84.7354C124.235 84.3978 124.514 84.1241 124.859 84.1241C125.203 84.1241 125.483 84.3978 125.483 84.7354C125.483 85.073 125.203 85.3467 124.859 85.3467Z" fill="#F0F0F0"/>
<path d="M94.1843 73.9891C93.8396 73.9891 93.5602 73.7154 93.5602 73.3778C93.5602 73.0402 93.8396 72.7665 94.1843 72.7665C94.529 72.7665 94.8083 73.0402 94.8083 73.3778C94.8083 73.7154 94.529 73.9891 94.1843 73.9891Z" fill="#F0F0F0"/>
<path d="M97.2663 13.3194C96.9217 13.3194 96.6423 13.0457 96.6423 12.7081C96.6423 12.3705 96.9217 12.0968 97.2663 12.0968C97.611 12.0968 97.8904 12.3705 97.8904 12.7081C97.8904 13.0457 97.611 13.3194 97.2663 13.3194Z" fill="#F0F0F0"/>
<path d="M59.547 61.1938C59.2023 61.1938 58.9229 60.9201 58.9229 60.5825C58.9229 60.2449 59.2023 59.9712 59.547 59.9712C59.8916 59.9712 60.171 60.2449 60.171 60.5825C60.171 60.9201 59.8916 61.1938 59.547 61.1938Z" fill="#F0F0F0"/>
<path d="M54.8503 71.8326C54.5057 71.8326 54.2262 71.5589 54.2262 71.2213C54.2262 70.8837 54.5057 70.61 54.8503 70.61C55.195 70.61 55.4744 70.8837 55.4744 71.2213C55.4744 71.5589 55.195 71.8326 54.8503 71.8326Z" fill="#F0F0F0"/>
<path d="M111.102 14.6596C111.097 17.746 111.842 20.7894 113.274 23.5386C113.463 23.9009 113.664 24.257 113.876 24.6068C115.973 28.0763 119.111 30.8283 122.862 32.4881C124.981 30.9829 126.961 29.2987 128.78 27.4548C129.057 27.173 129.332 26.885 129.603 26.5908C129.862 26.309 130.117 26.0215 130.367 25.7282C133.613 21.9284 136.011 17.2488 135.292 12.4269C134.574 7.61785 130.748 3.61393 126.193 1.69033C123.559 0.57901 120.72 0.0815843 117.844 0.00970078C115.596 1.95445 113.824 4.37004 112.659 7.07729C112.512 7.41802 112.377 7.76306 112.25 8.11241C111.488 10.2145 111.1 12.429 111.102 14.6596V14.6596Z" fill="#6C63FF"/>
<path d="M102.002 15.6658C102.002 18.6604 104.987 21.438 110.409 23.4896C111.494 23.9007 112.655 24.2731 113.876 24.6066C118.446 25.8545 123.885 26.546 129.603 26.5906C129.862 26.3088 130.117 26.0213 130.367 25.728C130.305 25.7294 130.243 25.7294 130.182 25.7294C123.972 25.7294 118.081 24.9589 113.274 23.5384C112.386 23.2753 111.535 22.9907 110.726 22.6845C105.742 20.7997 102.883 18.2406 102.883 15.6658C102.883 13.0909 105.742 10.5333 110.726 8.64705C111.219 8.46015 111.727 8.28188 112.25 8.11224C112.377 7.76288 112.512 7.41784 112.659 7.07711C111.878 7.31577 111.128 7.57071 110.409 7.84195C104.987 9.89351 102.002 12.6725 102.002 15.6658Z" fill="#E4E4E4"/>
<path d="M129.262 4.9809C128.917 4.9809 128.638 4.70721 128.638 4.36961C128.638 4.032 128.917 3.75831 129.262 3.75831C129.606 3.75831 129.886 4.032 129.886 4.36961C129.886 4.70721 129.606 4.9809 129.262 4.9809Z" fill="#F0F0F0"/>
<path d="M116.199 8.86261C115.855 8.86261 115.575 8.58892 115.575 8.25132C115.575 7.91371 115.855 7.64002 116.199 7.64002C116.544 7.64002 116.823 7.91371 116.823 8.25132C116.823 8.58892 116.544 8.86261 116.199 8.86261Z" fill="#F0F0F0"/>
<path d="M122.951 20.3779C119.599 20.3779 116.882 17.7164 116.882 14.4333C116.882 11.1502 119.599 8.48877 122.951 8.48877C126.302 8.48877 129.019 11.1502 129.019 14.4333C129.019 17.7164 126.302 20.3779 122.951 20.3779Z" fill="#F0F0F0"/>
<path opacity="0.3" d="M10.8784 45.8957C12.2405 46.2896 15.2433 46.58 18.5456 46.7583C21.8464 46.9351 25.4671 47.0127 29.0425 47.0875C35.3006 47.2198 41.5583 47.3525 47.8155 47.4857C48.6756 47.5044 49.5386 47.5217 50.4045 47.5375C50.8375 47.2571 51.2704 46.9725 51.699 46.6821C50.9314 46.6864 50.1638 46.6821 49.4021 46.6677C46.1482 46.6044 43.3934 46.3557 40.2555 46.2378C35.4269 46.0552 30.2137 46.199 25.181 46.2723C20.1483 46.3471 14.4141 46.3198 10.8784 45.8957Z" fill="#F0F0F0"/>
<path opacity="0.3" d="M106.928 91.2154L126.876 74.9366L107.496 91.8675C107.459 91.9294 107.407 91.9817 107.345 92.0199C107.282 92.0582 107.212 92.0814 107.138 92.0876C107.065 92.0937 106.991 92.0827 106.923 92.0554C106.855 92.0281 106.795 91.9853 106.747 91.9305C106.7 91.8758 106.666 91.8107 106.649 91.7406C106.632 91.6705 106.632 91.5975 106.65 91.5276C106.668 91.4577 106.702 91.3929 106.75 91.3386C106.799 91.2843 106.859 91.2421 106.928 91.2154H106.928Z" fill="#F0F0F0"/>
<path d="M122.07 29.5651C121.726 29.5651 121.446 29.2914 121.446 28.9538C121.446 28.6162 121.726 28.3425 122.07 28.3425C122.415 28.3425 122.694 28.6162 122.694 28.9538C122.694 29.2914 122.415 29.5651 122.07 29.5651Z" fill="#F0F0F0"/>
<path d="M69.6584 99.785L67.0772 99.7848L65.8491 90.0321L69.6588 90.0322L69.6584 99.785Z" fill="#FFB6B6"/>
<path d="M70.3168 98.9594L69.5902 98.9594L66.7537 97.8294L65.2334 98.9592H65.2332C64.374 98.9593 63.5501 99.2936 62.9425 99.8887C62.335 100.484 61.9937 101.291 61.9936 102.132V102.236L70.3166 102.236L70.3168 98.9594Z" fill="#2F2E41"/>
<path d="M88.9891 99.785L91.5703 99.7848L92.7983 90.0321L88.9887 90.0322L88.9891 99.785Z" fill="#FFB6B6"/>
<path d="M88.3307 102.236L96.6537 102.236V102.132C96.6536 101.291 96.3123 100.484 95.7048 99.8887C95.0973 99.2936 94.2733 98.9593 93.4141 98.9592H93.4139L91.8936 97.8294L89.0571 98.9594L88.3305 98.9594L88.3307 102.236Z" fill="#2F2E41"/>
<path d="M79.7401 25.0425L82.3538 26.992L89.2966 28.7931C89.2966 28.7931 86.8089 45.8957 87.983 47.0458C89.1571 48.1959 88.0982 48.2268 88.3341 49.7209C88.5701 51.215 89.5103 55.1597 89.5103 55.1597H68.7884C68.7884 55.1597 68.6214 52.7082 69.6429 52.1773C70.6644 51.6463 68.7013 49.1683 69.5361 48.754C70.3709 48.3397 69.1967 44.7455 69.1967 44.7455L66.6522 32.9783L73.4202 27.7912L74.4495 25.3619L79.7401 25.0425Z" fill="#6C63FF"/>
<path d="M76.479 40.3252C75.9796 40.3252 75.5747 39.9286 75.5747 39.4394C75.5747 38.9502 75.9796 38.5536 76.479 38.5536C76.9784 38.5536 77.3833 38.9502 77.3833 39.4394C77.3833 39.9286 76.9784 40.3252 76.479 40.3252Z" fill="#F2F2F2"/>
<path d="M89.5102 55.1597L90.3647 76.7134C90.3647 76.7134 94.0543 92.6327 93.4134 93.0512C92.7725 93.4698 92.501 95.9653 92.501 95.9653L88.8693 96.3838C88.8693 96.3838 88.8693 94.7097 88.0148 94.0819C87.1603 93.4542 79.2561 63.9486 79.2561 63.9486L71.5449 92.4762C71.5449 92.4762 71.3519 94.082 70.711 94.082C70.0701 94.082 69.8565 96.3838 69.8565 96.3838H66.2248V94.082C66.2248 94.082 64.593 93.5752 65.2339 91.9011C65.8748 90.227 68.7884 55.1597 68.7884 55.1597H89.5102Z" fill="#2F2E41"/>
<path d="M77.026 23.7581C74.6074 23.7581 72.6467 21.8374 72.6467 19.4682C72.6467 17.0991 74.6074 15.1784 77.026 15.1784C79.4447 15.1784 81.4054 17.0991 81.4054 19.4682C81.4054 21.8374 79.4447 23.7581 77.026 23.7581Z" fill="#FFB6B6"/>
<path opacity="0.1" d="M69.5361 38.7329L68.6817 39.3607L68.2544 36.431L69.5361 38.7329Z" fill="black"/>
<path d="M88.8871 28.7764C88.8871 28.7764 89.9552 28.5672 90.5961 30.4505C91.237 32.3338 93.5869 39.4486 93.5869 40.7042C93.5869 41.9597 78.9526 47.4996 78.9526 47.4996L80.4753 42.2671L87.1781 38.8209L88.8871 28.7764Z" fill="#6C63FF"/>
<path d="M78.2737 46.7238C76.8958 46.7238 75.7787 45.6296 75.7787 44.2798C75.7787 42.93 76.8958 41.8358 78.2737 41.8358C79.6517 41.8358 80.7688 42.93 80.7688 44.2798C80.7688 45.6296 79.6517 46.7238 78.2737 46.7238Z" fill="#FFB6B6"/>
<path opacity="0.1" d="M87.3734 36.2289L87.1781 38.8208L80.9799 42.0076L86.4928 38.3854L87.3734 36.2289Z" fill="black"/>
<path d="M72.4731 36.5984H72.5535V34.4407C72.5535 34.2767 72.5864 34.1143 72.6505 33.9628C72.7146 33.8113 72.8085 33.6736 72.9269 33.5576C73.0453 33.4417 73.1858 33.3497 73.3405 33.2869C73.4951 33.2242 73.6609 33.1919 73.8283 33.1919H78.4951C78.6626 33.1919 78.8283 33.2242 78.983 33.2869C79.1377 33.3497 79.2782 33.4417 79.3966 33.5576C79.515 33.6736 79.6089 33.8113 79.673 33.9628C79.737 34.1143 79.77 34.2767 79.77 34.4407V46.278C79.77 46.442 79.737 46.6044 79.673 46.7559C79.6089 46.9074 79.515 47.0451 79.3966 47.161C79.2782 47.277 79.1377 47.369 78.983 47.4317C78.8283 47.4945 78.6626 47.5268 78.4951 47.5268H73.8284C73.6609 47.5268 73.4952 47.4945 73.3405 47.4317C73.1858 47.369 73.0453 47.277 72.9269 47.161C72.8085 47.0451 72.7146 46.9074 72.6505 46.7559C72.5864 46.6044 72.5535 46.442 72.5535 46.278V38.1343H72.4731V36.5984Z" fill="#F0F0F0"/>
<path d="M66.6521 32.9782C66.6521 32.9782 66.0112 33.3968 65.584 35.2801C65.1567 37.1634 62.3796 44.2783 63.4477 45.9523C64.5158 47.6264 64.8311 49.4131 68.4628 46.902L73.4882 42.3949L69.8565 39.0468L68.3611 40.0931L66.6521 32.9782Z" fill="#6C63FF"/>
<path d="M76.1047 38.4678C75.5148 38.4678 75.0366 37.9993 75.0366 37.4215C75.0366 36.8436 75.5148 36.3752 76.1047 36.3752C76.6946 36.3752 77.1729 36.8436 77.1729 37.4215C77.1729 37.9993 76.6946 38.4678 76.1047 38.4678Z" fill="#6C63FF"/>
<path d="M73.0126 42.1577C71.6347 42.1577 70.5176 41.0635 70.5176 39.7137C70.5176 38.3639 71.6347 37.2696 73.0126 37.2696C74.3906 37.2696 75.5077 38.3639 75.5077 39.7137C75.5077 41.0635 74.3906 42.1577 73.0126 42.1577Z" fill="#FFB6B6"/>
<path opacity="0.1" d="M87.491 44.0517L80.3285 47.1552L87.6901 45.7458L87.491 44.0517Z" fill="black"/>
<path d="M81.4445 20.3232L82.0458 18.0816C82.2027 17.4967 82.3608 16.9 82.3256 16.2962C82.2903 15.6925 82.0289 15.0694 81.5096 14.7424C80.9904 14.4153 80.1977 14.4926 79.8635 15.0011C79.8 14.1891 79.046 13.5645 78.2459 13.3433C77.4459 13.122 76.5964 13.2095 75.766 13.2469C74.9355 13.2842 74.0589 13.2581 73.3422 12.8456C73.2876 13.0061 73.2912 13.1802 73.3524 13.3384C73.4136 13.4966 73.5286 13.6293 73.6781 13.7141C73.5 13.7617 73.31 13.7413 73.1466 13.6569C72.9833 13.5725 72.8587 13.4304 72.7982 13.2595C72.7928 13.7298 72.9702 14.1844 73.2945 14.5312C72.9852 14.3809 72.6298 14.3487 72.2976 14.4408C71.9654 14.5329 71.6801 14.7429 71.4972 15.0297C71.1314 15.6509 71.3363 16.431 71.5503 17.1168L72.6487 20.6366C72.8153 20.1015 72.8467 19.5366 72.9358 18.9841C73.0249 18.4315 73.1834 17.8673 73.5558 17.4431C73.9281 17.019 74.5606 16.7734 75.0897 16.984C75.3865 17.1021 75.6128 17.3418 75.8808 17.5139C76.4307 17.8668 77.1301 17.9175 77.7834 17.8456C78.4367 17.7738 79.0734 17.5916 79.7266 17.5188C80.1356 17.4732 80.592 17.4853 80.9006 17.7521C81.1128 17.9681 81.253 18.2423 81.3025 18.5381C81.4481 19.1279 81.5054 19.7352 81.4724 20.3411" fill="#2F2E41"/>
</g>
<defs>
<clipPath id="clip0">
<rect width="136" height="113" fill="white" transform="matrix(-1 0 0 1 136 0)"/>
</clipPath>
</defs>
</svg>
