<svg width="147" height="116" viewBox="0 0 147 116" fill="none" xmlns="http://www.w3.org/2000/svg">
<path d="M3.8147e-05 9.27113H88.1567V51.0532H3.8147e-05V9.27113Z" fill="#E6E6E6"/>
<path d="M2.52081 12.854H85.6359V47.7141H2.52081V12.854Z" fill="white"/>
<path d="M0.0376282 6.85715H88.1943V10.5978H0.0376282V6.85715Z" fill="#6C63FF"/>
<path d="M85.4112 9.75009C85.0278 9.75009 84.717 9.43968 84.717 9.05677C84.717 8.67385 85.0278 8.36344 85.4112 8.36344C85.7946 8.36344 86.1053 8.67385 86.1053 9.05677C86.1053 9.43968 85.7946 9.75009 85.4112 9.75009Z" fill="white"/>
<path d="M82.7764 9.75009C82.3931 9.75009 82.0823 9.43968 82.0823 9.05677C82.0823 8.67385 82.3931 8.36344 82.7764 8.36344C83.1598 8.36344 83.4706 8.67385 83.4706 9.05677C83.4706 9.43968 83.1598 9.75009 82.7764 9.75009Z" fill="white"/>
<path d="M80.1415 9.75009C79.7582 9.75009 79.4474 9.43968 79.4474 9.05677C79.4474 8.67385 79.7582 8.36344 80.1415 8.36344C80.5249 8.36344 80.8357 8.67385 80.8357 9.05677C80.8357 9.43968 80.5249 9.75009 80.1415 9.75009Z" fill="white"/>
<path d="M22.0879 18.4949H35.9065V42.0737H22.0879V18.4949Z" fill="#F2F2F2"/>
<path d="M38.196 18.4945H66.0687V24.9848H38.196V18.4945Z" fill="#6C63FF"/>
<path d="M38.196 26.7922H66.0687V33.7755H38.196V26.7922Z" fill="#F2F2F2"/>
<path d="M38.196 35.5829H66.0687V42.0732H38.196V35.5829Z" fill="#F2F2F2"/>
<path d="M104.94 69.7176C104.938 69.2396 105.036 68.7664 105.229 68.3291C105.423 67.8918 105.706 67.5001 106.061 67.1799C106.417 66.8596 106.836 66.6179 107.291 66.4706C107.746 66.3234 108.228 66.2738 108.703 66.3253C108.854 66.3423 109.003 66.3698 109.15 66.4075L120.646 56.5647L119.959 52.8661L125.626 51.0319L127.334 56.9592C127.536 57.6706 127.504 58.4281 127.24 59.1193C126.977 59.8105 126.498 60.3986 125.874 60.7962L111.731 69.7307C111.731 69.8418 111.725 69.9529 111.714 70.0634C111.662 70.5387 111.511 70.9976 111.269 71.4103C111.027 71.823 110.701 72.18 110.312 72.4579C109.922 72.7359 109.478 72.9285 109.009 73.0232C108.54 73.1179 108.056 73.1125 107.589 73.0074C107.454 72.9774 107.32 72.9388 107.189 72.892C106.535 72.6556 105.968 72.2247 105.566 71.6572C105.164 71.0896 104.946 70.4128 104.94 69.7176V69.7176Z" fill="#D2A18C"/>
<path d="M133.523 81.1329H118.7C118.7 81.5584 103.423 81.9038 103.423 81.9038C103.183 82.0842 102.964 82.2911 102.771 82.5206C102.191 83.2118 101.874 84.0856 101.876 84.9877V85.6044C101.876 86.6266 102.283 87.6069 103.007 88.3297C103.73 89.0526 104.712 89.4588 105.735 89.4592H133.523C134.546 89.4583 135.527 89.0519 136.251 88.3292C136.974 87.6064 137.381 86.6265 137.382 85.6044V84.9877C137.381 83.9657 136.973 82.9861 136.25 82.2635C135.527 81.5409 134.546 81.1343 133.523 81.1329V81.1329Z" fill="#3F3D56"/>
<path d="M117.398 89.306H121.412V115.21H117.398V89.306Z" fill="#3F3D56"/>
<path d="M105.975 115.532C105.975 116.017 112.057 115.72 119.56 115.72C127.063 115.72 133.145 116.017 133.145 115.532C133.145 115.047 127.063 111.201 119.56 111.201C112.057 111.201 105.975 115.047 105.975 115.532Z" fill="#3F3D56"/>
<path d="M109.598 112.033L105.813 112.033L104.012 102.227L109.599 102.228L109.598 112.033Z" fill="#D2A18C"/>
<path d="M110.564 115.698L98.3586 115.697V115.543C98.3586 114.92 98.4815 114.303 98.7202 113.727C98.9589 113.152 99.3088 112.629 99.75 112.188C100.191 111.747 100.715 111.398 101.291 111.16C101.867 110.921 102.485 110.798 103.109 110.798H103.109L110.564 110.799L110.564 115.698Z" fill="#2F2E41"/>
<path d="M103.937 105.952L96.3907 89.0508C95.7607 87.6263 95.691 86.0169 96.1956 84.5434C96.7001 83.0699 97.7419 81.8402 99.1134 81.0994L115.481 72.3329L122.95 71.6983L129.84 71.0728L129.89 71.1569C129.953 71.2641 131.434 73.8197 130.433 76.6219C129.674 78.7474 127.698 80.4077 124.561 81.5566C117.239 84.2381 108.781 86.5299 105.485 87.3906C105.339 87.4278 105.203 87.4954 105.085 87.5889C104.967 87.6824 104.871 87.7998 104.802 87.9332C104.733 88.0651 104.692 88.2099 104.681 88.3584C104.671 88.507 104.691 88.6561 104.741 88.7963L111.752 104.528C111.825 104.728 111.851 104.941 111.829 105.153C111.806 105.364 111.736 105.567 111.622 105.747C111.508 105.927 111.355 106.078 111.174 106.189C110.992 106.3 110.788 106.368 110.576 106.388L105.337 106.769C105.293 106.773 105.249 106.775 105.205 106.775C104.936 106.775 104.674 106.697 104.449 106.551C104.224 106.405 104.046 106.197 103.937 105.952V105.952Z" fill="#CBCBCB"/>
<path d="M112.068 112.033L108.283 112.033L106.482 102.227L112.069 102.228L112.068 112.033Z" fill="#D2A18C"/>
<path d="M113.034 115.698L100.829 115.697V115.543C100.829 114.92 100.951 114.303 101.19 113.727C101.429 113.152 101.779 112.629 102.22 112.188C102.661 111.747 103.185 111.398 103.761 111.16C104.337 110.921 104.955 110.798 105.579 110.798H105.579L113.034 110.799L113.034 115.698Z" fill="#2F2E41"/>
<path d="M106.716 106.878L99.1695 89.9759C98.5395 88.5514 98.4698 86.9421 98.9744 85.4685C99.479 83.995 100.521 82.7654 101.892 82.0246L118.26 73.258L125.729 72.6235L131.125 72.1559L131.125 72.082C131.188 72.1892 132.67 74.7448 131.668 77.547C130.909 79.6726 130.477 81.3328 127.34 82.4817C120.018 85.1632 111.56 87.455 108.263 88.3157C108.118 88.3529 107.982 88.4205 107.864 88.514C107.746 88.6076 107.65 88.7249 107.581 88.8584C107.512 88.9903 107.47 89.135 107.46 89.2836C107.45 89.4321 107.47 89.5812 107.52 89.7215L114.531 105.453C114.604 105.653 114.63 105.867 114.608 106.078C114.585 106.289 114.514 106.493 114.401 106.672C114.287 106.852 114.134 107.003 113.952 107.114C113.771 107.225 113.566 107.293 113.355 107.313L108.116 107.694C108.072 107.698 108.027 107.7 107.983 107.7C107.715 107.7 107.453 107.622 107.228 107.476C107.003 107.33 106.825 107.122 106.716 106.878Z" fill="#CBCBCB"/>
<path d="M120.937 72.4643C120.575 72.2087 115.379 74.9314 114.453 72.7727C118.775 61.9794 115.797 57.3186 118.444 51.1291C118.911 50.0616 119.613 49.1135 120.499 48.3562C121.385 47.5988 122.432 47.0518 123.559 46.7564L130.429 46.4101L130.465 46.4272C132.015 47.1856 133.279 48.4227 134.07 49.9552C134.861 51.4877 135.136 53.2339 134.855 54.935C134.83 61.671 130.795 66.8085 132.206 71.6943C132.265 71.8985 132.283 72.1126 132.257 72.3237C132.231 72.5348 132.163 72.7385 132.057 72.9227C131.954 73.1007 131.815 73.2557 131.65 73.3782C131.484 73.5006 131.295 73.588 131.095 73.6348L122.024 72.4262C121.812 72.4766 121.592 72.4812 121.378 72.4399C121.164 72.3986 120.962 72.3122 120.784 72.1865L120.937 72.4643Z" fill="#2F2E41"/>
<path d="M128.136 43.8473C123.948 43.8473 120.553 40.4563 120.553 36.2732C120.553 32.0901 123.948 28.699 128.136 28.699C132.324 28.699 135.72 32.0901 135.72 36.2732C135.72 40.4563 132.324 43.8473 128.136 43.8473Z" fill="#D2A18C"/>
<path d="M130.552 43.2253C130.149 43.4014 129.324 40.1947 129.693 39.5534C130.243 38.5996 130.211 38.6064 130.575 37.9754C130.94 37.3444 131.022 36.4806 130.55 35.9254C130.077 35.3702 128.984 35.4438 128.768 36.14C128.907 34.8177 127.597 33.7548 126.3 33.4561C125.003 33.1574 123.635 33.3428 122.331 33.077C120.817 32.7686 119.242 31.5013 119.846 29.8388C119.95 29.562 120.105 29.3073 120.303 29.0882C121.001 28.3046 121.977 27.97 122.931 27.6465C124.917 26.9735 126.956 26.292 129.051 26.3663C132.494 26.4884 135.748 28.8653 136.908 32.105C137.052 32.5093 137.164 32.9244 137.242 33.3464C137.962 37.2086 135.716 41.0182 132.069 42.489L130.552 43.2253Z" fill="#2F2E41"/>
<path d="M90.7842 55.4051L89.9146 60.5624C89.9049 60.6199 89.9113 60.679 89.933 60.7331L96.7553 77.7595C96.7823 77.827 96.8316 77.8831 96.8951 77.9186C96.9585 77.9541 97.0323 77.9667 97.1039 77.9545C97.1756 77.9423 97.2409 77.9059 97.289 77.8513C97.337 77.7968 97.3649 77.7275 97.3679 77.655L97.6569 70.8128C97.6589 70.7674 97.651 70.7221 97.6338 70.6799L91.3921 55.3383C91.3661 55.2743 91.3198 55.2205 91.2604 55.1852C91.201 55.1498 91.1317 55.1347 91.0629 55.1423C90.9942 55.1498 90.9297 55.1796 90.8794 55.227C90.8291 55.2745 90.7957 55.337 90.7842 55.4051V55.4051Z" fill="#3F3D56"/>
<path d="M91.2673 55.801L90.441 60.2317L96.4952 75.7687L97.2812 70.7708L91.2673 55.801Z" fill="#6C63FF"/>
<path d="M117.756 77.6803C117.607 78.2612 98.0495 78.8898 97.8467 78.7141C97.6647 78.489 97.507 78.2454 97.3762 77.9872C97.1713 77.6216 96.9815 77.2549 96.9815 77.2549L97.303 71.0772L116.568 69.0208C116.568 69.0208 117.421 74.1762 117.688 76.5446C117.749 76.92 117.771 77.3005 117.756 77.6803Z" fill="#3F3D56"/>
<path opacity="0.1" d="M99.8235 71.7308L99.8218 77.0531L108.343 76.4481L107.966 71.1525L99.8235 71.7308Z" fill="black"/>
<path opacity="0.1" d="M110.927 72.6528L110.876 72.6464L111.278 74.909L116.012 74.5729L115.85 72.3032L110.927 72.6528Z" fill="black"/>
<path opacity="0.1" d="M117.756 77.6803C117.607 78.2611 98.0495 78.8898 97.8467 78.7141C97.6647 78.489 97.507 78.2454 97.3762 77.9872L117.688 76.5446C117.749 76.92 117.771 77.3004 117.756 77.6803Z" fill="black"/>
<path d="M125.609 68.455L109.111 71.5301C109.07 71.6333 109.024 71.7343 108.972 71.8327C108.748 72.2539 108.437 72.6233 108.061 72.9169C107.684 73.2104 107.25 73.4216 106.787 73.5367C106.322 73.6536 105.837 73.6699 105.364 73.5844C104.892 73.499 104.444 73.3138 104.049 73.0413C103.334 72.551 102.834 71.8061 102.651 70.9594C102.468 70.1127 102.617 69.2282 103.066 68.4872C103.515 67.7462 104.231 67.2049 105.067 66.9743C105.903 66.7436 106.796 66.8411 107.562 67.2467C107.695 67.3182 107.824 67.3989 107.946 67.4882L122.275 62.5991L123.009 58.9093L128.952 59.302L128.336 65.4875C128.262 66.2093 127.956 66.8879 127.465 67.4224C126.973 67.957 126.322 68.3191 125.609 68.455V68.455Z" fill="#D2A18C"/>
<path d="M129.154 62.061L120.517 59.2258L122.532 53.4481C122.799 52.6809 123.33 52.0328 124.029 51.6184C124.729 51.2041 125.552 51.05 126.355 51.1836V51.1836C127.166 51.3187 127.903 51.7392 128.431 52.3692C128.96 52.9992 129.245 53.7971 129.236 54.6189L129.154 62.061Z" fill="#2F2E41"/>
<path d="M74.3665 116H146.81C146.86 116 146.909 115.98 146.944 115.944C146.98 115.909 147 115.86 147 115.81C147 115.76 146.98 115.711 146.944 115.676C146.909 115.64 146.86 115.62 146.81 115.62H74.3665C74.3161 115.62 74.2677 115.64 74.232 115.676C74.1964 115.711 74.1764 115.76 74.1764 115.81C74.1764 115.86 74.1964 115.909 74.232 115.944C74.2677 115.98 74.3161 116 74.3665 116Z" fill="#CBCBCB"/>
<path d="M46.1864 110.016C42.7118 111.813 41.167 115.723 41.167 115.723C41.167 115.723 45.2556 116.722 48.7301 114.926C52.2047 113.13 53.7495 109.219 53.7495 109.219C53.7495 109.219 49.661 108.22 46.1864 110.016Z" fill="#F1F1F1"/>
<path d="M47.2975 111.31C45.2241 114.624 41.1967 115.846 41.1967 115.846C41.1967 115.846 40.531 111.694 42.6044 108.381C44.6778 105.067 48.7052 103.845 48.7052 103.845C48.7052 103.845 49.371 107.996 47.2975 111.31Z" fill="#F1F1F1"/>
<path d="M34.8173 115.925H56.4933C56.5438 115.925 56.5921 115.905 56.6278 115.869C56.6634 115.833 56.6835 115.785 56.6835 115.735C56.6835 115.684 56.6634 115.636 56.6278 115.6C56.5921 115.565 56.5438 115.545 56.4933 115.545H34.8173C34.7669 115.545 34.7185 115.565 34.6829 115.6C34.6472 115.636 34.6272 115.684 34.6272 115.735C34.6272 115.785 34.6472 115.833 34.6829 115.869C34.7185 115.905 34.7669 115.925 34.8173 115.925Z" fill="#CBCBCB"/>
</svg>
