<svg width="46" height="44" viewBox="0 0 46 44" fill="none" xmlns="http://www.w3.org/2000/svg">
<path d="M28.7069 19L28.6869 10.6L24.5669 17.52H23.1069L19.0069 10.78V19H15.9669V5H18.6469L23.8869 13.7L29.0469 5H31.7069L31.7469 19H28.7069Z" fill="#2F2E41"/>
<path d="M23.9345 42.783C22.5078 42.783 21.2145 42.4764 20.0545 41.863C18.9078 41.2364 18.0011 40.3764 17.3345 39.283C16.6811 38.1764 16.3545 36.9297 16.3545 35.543C16.3545 34.1564 16.6811 32.9164 17.3345 31.823C18.0011 30.7164 18.9078 29.8564 20.0545 29.243C21.2145 28.6164 22.5145 28.303 23.9545 28.303C25.1678 28.303 26.2611 28.5164 27.2345 28.943C28.2211 29.3697 29.0478 29.983 29.7145 30.783L27.6345 32.703C26.6878 31.6097 25.5145 31.063 24.1145 31.063C23.2478 31.063 22.4745 31.2564 21.7945 31.643C21.1145 32.0164 20.5811 32.543 20.1945 33.223C19.8211 33.903 19.6345 34.6764 19.6345 35.543C19.6345 36.4097 19.8211 37.183 20.1945 37.863C20.5811 38.543 21.1145 39.0764 21.7945 39.463C22.4745 39.8364 23.2478 40.023 24.1145 40.023C25.5145 40.023 26.6878 39.4697 27.6345 38.363L29.7145 40.283C29.0478 41.0964 28.2211 41.7164 27.2345 42.143C26.2478 42.5697 25.1478 42.783 23.9345 42.783Z" fill="#2F2E41"/>
<circle cx="4.98026" cy="23.6335" r="4.98026" fill="#2F2E41"/>
<circle cx="4.98027" cy="23.6335" r="4.07476" fill="white"/>
<path d="M45.9998 23.4529L37.1709 28.5499L37.1712 18.3553L45.9998 23.4529Z" fill="#2F2E41"/>
<path d="M44.7319 23.4527L37.8047 27.4518L37.805 19.4531L44.7319 23.4527Z" fill="white"/>
<line x1="10.0983" y1="23.0429" x2="14.3502" y2="23.0429" stroke="#2F2E41" stroke-linecap="square"/>
<line x1="0.5" y1="-0.5" x2="3.35338" y2="-0.5" transform="matrix(0.70924 -0.704967 0.843745 0.536744 14.8502 23.5429)" stroke="#2F2E41" stroke-linecap="square"/>
<line x1="28.976" y1="24.1035" x2="29.5365" y2="23.5429" stroke="#2F2E41" stroke-linecap="square"/>
<line x1="21.4304" y1="24.104" x2="24.4662" y2="20.8509" stroke="#2F2E41" stroke-linecap="square"/>
<line x1="36.9878" y1="23.4996" x2="30.2005" y2="23.4996" stroke="#2F2E41" stroke-linecap="square"/>
<line x1="20.7481" y1="24.7883" x2="17.1822" y2="20.9899" stroke="#2F2E41" stroke-linecap="square"/>
<line x1="28.269" y1="24.7942" x2="25.1564" y2="21.5333" stroke="#2F2E41" stroke-linecap="square"/>
</svg>
